<?xml version="1.0" encoding="UTF-8"?>
<svg id="Layer_2" data-name="Layer 2" xmlns="http://www.w3.org/2000/svg" viewBox="0 0 468.32 87.76">
  <defs>
    <style>
      .cls-1 {
        fill: #534741;
      }
    </style>
  </defs>
  <g id="Layer_1-2" data-name="Layer 1">
    <path class="cls-1" d="M137.4,87.62l-24.41-27.2c7.6-4.85,14.24-11.08,19.52-18.37l-11.58-7.41c-4.65,6.22-10.51,11.47-17.24,15.41-7.07-9.5-16.6-17.38-28.18-22.56-17.48-7.82-36.43-8.07-53.17-2.15-3.73-7.66-5.82-16.26-5.82-25.34H2.81c0,22.29,10.18,42.21,26.15,55.35L0,87.62H18.43l22.03-24.54c10.12,5.47,21.71,8.58,34.02,8.58,8.38,0,16.42-1.44,23.89-4.08,.66-.23,1.3-.49,1.95-.74l18.65,20.78h18.43Zm-62.92-29.67c-17.82,0-33.76-8.04-44.39-20.69,12.72-3.7,26.78-3.08,39.82,2.76,8.29,3.71,15.28,9.12,20.74,15.65-5.13,1.49-10.56,2.29-16.17,2.29Z"/>
    <g>
      <polygon class="cls-1" points="157.43 31.36 167.81 31.36 167.81 43.65 179.06 43.65 179.06 10.29 167.81 10.29 167.81 22.11 157.43 22.11 157.43 10.29 146.18 10.29 146.18 43.65 157.43 43.65 157.43 31.36"/>
      <path class="cls-1" d="M208.82,25.93c-1.1-.73-2.3-1.32-3.6-1.76-1.3-.44-2.61-.79-3.93-1.05-1.32-.25-2.53-.49-3.62-.71-1.1-.22-1.98-.5-2.64-.83-.67-.33-1-.79-1-1.36,0-.38,.13-.73,.41-1.05,.27-.32,.72-.57,1.36-.76,.64-.19,1.49-.29,2.57-.29,1.46,0,2.96,.21,4.5,.62,1.54,.41,3.14,1.03,4.79,1.86l3.38-8.15c-1.75-.98-3.72-1.72-5.91-2.19-2.19-.48-4.42-.71-6.67-.71-3.43,0-6.3,.51-8.6,1.53-2.3,1.02-4.03,2.38-5.19,4.07-1.16,1.7-1.74,3.58-1.74,5.65,0,1.78,.33,3.26,1,4.46,.67,1.19,1.55,2.15,2.64,2.88,1.1,.73,2.3,1.32,3.62,1.76,1.32,.45,2.63,.8,3.93,1.07,1.3,.27,2.5,.52,3.6,.76,1.1,.24,1.98,.53,2.64,.88,.67,.35,1,.83,1,1.43,0,.38-.14,.71-.43,.98-.29,.27-.74,.48-1.36,.62s-1.47,.21-2.55,.21c-1.84,0-3.74-.28-5.69-.83-1.95-.56-3.73-1.29-5.31-2.22l-3.62,8.2c1.68,1.02,3.83,1.84,6.43,2.48,2.6,.63,5.31,.95,8.1,.95,3.46,0,6.34-.52,8.63-1.55,2.29-1.03,4.01-2.4,5.17-4.1,1.16-1.7,1.74-3.57,1.74-5.6,0-1.75-.33-3.21-1-4.38-.67-1.17-1.55-2.13-2.64-2.86Z"/>
      <polygon class="cls-1" points="237.44 22.11 227.05 22.11 227.05 10.29 215.8 10.29 215.8 43.65 227.05 43.65 227.05 31.36 237.44 31.36 237.44 43.65 248.68 43.65 248.68 10.29 237.44 10.29 237.44 22.11"/>
      <polygon class="cls-1" points="146.18 87 157.43 87 157.43 76.32 171.34 76.32 171.34 67.84 157.43 67.84 157.43 62.12 173.3 62.12 173.3 53.64 146.18 53.64 146.18 87"/>
      <path class="cls-1" d="M198.03,71.65c0,2.54-.45,4.34-1.36,5.41-.91,1.06-2.15,1.6-3.74,1.6s-2.8-.53-3.72-1.6c-.92-1.06-1.38-2.87-1.38-5.41v-18.01h-11.25v18.35c0,4.99,1.43,8.86,4.29,11.63,2.86,2.76,6.85,4.15,11.96,4.15s9.1-1.38,11.96-4.15c2.86-2.76,4.29-6.64,4.29-11.63v-18.35h-11.06v18.01Z"/>
      <path class="cls-1" d="M243.63,72.87c1.24-1.86,1.86-4.07,1.86-6.65s-.62-4.8-1.86-6.7c-1.24-1.89-2.99-3.34-5.27-4.36-2.27-1.02-4.96-1.52-8.08-1.52h-16.06v33.36h11.25v-8.39h3.06l5.66,8.39h12.01l-7.02-10.28c1.87-.96,3.36-2.22,4.44-3.85Zm-10.6-9.51c.75,.7,1.12,1.65,1.12,2.86s-.37,2.16-1.12,2.86c-.75,.7-1.9,1.05-3.45,1.05h-4.1v-7.82h4.1c1.56,0,2.71,.35,3.45,1.05Z"/>
      <polygon class="cls-1" points="271.65 68.81 258.98 53.64 249.73 53.64 249.73 87 260.69 87 260.69 71.83 273.37 87 282.61 87 282.61 53.64 271.65 53.64 271.65 68.81"/>
      <rect class="cls-1" x="288.05" y="53.64" width="11.25" height="33.36"/>
      <polygon class="cls-1" points="302.2 62.36 311.97 62.36 311.97 87 323.21 87 323.21 62.36 332.98 62.36 332.98 53.64 302.2 53.64 302.2 62.36"/>
      <path class="cls-1" d="M356.57,71.65c0,2.54-.45,4.34-1.36,5.41-.91,1.06-2.15,1.6-3.74,1.6s-2.8-.53-3.72-1.6c-.92-1.06-1.38-2.87-1.38-5.41v-18.01h-11.25v18.35c0,4.99,1.43,8.86,4.29,11.63,2.86,2.76,6.85,4.15,11.96,4.15s9.1-1.38,11.96-4.15c2.86-2.76,4.29-6.64,4.29-11.63v-18.35h-11.06v18.01Z"/>
      <path class="cls-1" d="M402.18,72.87c1.24-1.86,1.86-4.07,1.86-6.65s-.62-4.8-1.86-6.7c-1.24-1.89-2.99-3.34-5.27-4.36-2.27-1.02-4.96-1.52-8.08-1.52h-16.06v33.36h11.25v-8.39h3.06l5.66,8.39h12.01l-7.02-10.28c1.87-.96,3.36-2.22,4.44-3.85Zm-10.6-9.51c.75,.7,1.12,1.65,1.12,2.86s-.37,2.16-1.12,2.86c-.75,.7-1.9,1.05-3.45,1.05h-4.1v-7.82h4.1c1.56,0,2.71,.35,3.45,1.05Z"/>
      <polygon class="cls-1" points="419.33 74.13 433.44 74.13 433.44 66.03 419.33 66.03 419.33 62.12 435.39 62.12 435.39 53.64 408.28 53.64 408.28 87 436.01 87 436.01 78.52 419.33 78.52 419.33 74.13"/>
      <path class="cls-1" d="M467.32,72.13c-.67-1.17-1.55-2.13-2.64-2.86-1.1-.73-2.3-1.32-3.6-1.76-1.3-.44-2.61-.79-3.93-1.05-1.32-.25-2.53-.49-3.62-.71-1.1-.22-1.98-.5-2.64-.83-.67-.33-1-.79-1-1.36,0-.38,.13-.73,.41-1.05,.27-.32,.72-.57,1.36-.76,.64-.19,1.49-.29,2.57-.29,1.46,0,2.96,.21,4.5,.62,1.54,.41,3.14,1.03,4.79,1.86l3.38-8.15c-1.75-.98-3.72-1.72-5.91-2.19-2.19-.48-4.42-.71-6.67-.71-3.43,0-6.3,.51-8.6,1.53-2.3,1.02-4.03,2.38-5.19,4.07-1.16,1.7-1.74,3.58-1.74,5.65,0,1.78,.33,3.26,1,4.46,.67,1.19,1.55,2.15,2.64,2.88,1.1,.73,2.3,1.32,3.62,1.76,1.32,.45,2.63,.8,3.93,1.07,1.3,.27,2.5,.52,3.6,.76,1.1,.24,1.98,.53,2.64,.88,.67,.35,1,.83,1,1.43,0,.38-.14,.71-.43,.98-.29,.27-.74,.48-1.36,.62s-1.47,.21-2.55,.21c-1.84,0-3.74-.28-5.69-.83-1.95-.56-3.73-1.29-5.31-2.22l-3.62,8.2c1.68,1.02,3.83,1.84,6.43,2.48,2.6,.63,5.31,.95,8.1,.95,3.46,0,6.34-.52,8.63-1.55,2.29-1.03,4.01-2.4,5.17-4.1,1.16-1.7,1.74-3.57,1.74-5.6,0-1.75-.33-3.21-1-4.38Z"/>
    </g>
  </g>
</svg>