<?xml version="1.0" encoding="UTF-8"?>
<svg id="Layer_2" data-name="Layer 2" xmlns="http://www.w3.org/2000/svg" viewBox="0 0 137.4 87.62">
  <defs>
    <style>
      .cls-1 {
        fill: #534741;
      }
    </style>
  </defs>
  <g id="Layer_1-2" data-name="Layer 1">
    <path class="cls-1" d="M137.4,87.62l-24.41-27.2c7.6-4.85,14.24-11.08,19.52-18.37l-11.58-7.41c-4.65,6.22-10.51,11.47-17.24,15.41-7.07-9.5-16.6-17.38-28.18-22.56-17.48-7.82-36.43-8.07-53.17-2.15-3.73-7.66-5.82-16.26-5.82-25.34H2.81c0,22.29,10.18,42.21,26.15,55.35L0,87.62H18.43l22.03-24.54c10.12,5.47,21.71,8.58,34.02,8.58,8.38,0,16.42-1.44,23.89-4.08,.66-.23,1.3-.49,1.95-.74l18.65,20.78h18.43Zm-62.92-29.67c-17.82,0-33.76-8.04-44.39-20.69,12.72-3.7,26.78-3.08,39.82,2.76,8.29,3.71,15.28,9.12,20.74,15.65-5.13,1.49-10.56,2.29-16.17,2.29Z"/>
  </g>
</svg>